<?xml version="1.0" standalone="no"?>
<!DOCTYPE svg PUBLIC "-//W3C//DTD SVG 20010904//EN"
 "http://www.w3.org/TR/2001/REC-SVG-20010904/DTD/svg10.dtd">
<svg version="1.0" xmlns="http://www.w3.org/2000/svg"
 width="370.000000pt" height="155.000000pt" viewBox="0 0 370.000000 155.000000"
 preserveAspectRatio="xMidYMid meet">
<metadata>
Created by potrace 1.16, written by Peter Selinger 2001-2019
</metadata>
<g transform="translate(0.000000,155.000000) scale(0.100000,-0.100000)"
fill="#000000" stroke="none">
<path d="M0 775 l0 -775 1850 0 1850 0 0 775 0 775 -1850 0 -1850 0 0 -775z
m3314 401 c19 -8 37 -23 41 -34 6 -22 -13 -62 -30 -62 -5 0 5 -9 23 -20 21
-13 32 -27 32 -42 0 -50 -35 -68 -129 -68 l-71 0 0 120 0 120 50 0 c28 0 66
-6 84 -14z m-2715 -235 c82 -42 141 -153 125 -238 -20 -114 -121 -203 -228
-203 -48 0 -117 27 -158 60 -122 101 -97 309 44 379 58 28 163 29 217 2z
m2183 -58 c-331 -2 -873 -2 -1205 0 -331 1 -60 2 603 2 663 0 934 -1 602 -2z
m-162 -413 c12 -12 20 -33 20 -55 0 -46 -29 -75 -75 -75 -46 0 -75 29 -75 75
0 22 8 43 20 55 12 12 33 20 55 20 22 0 43 -8 55 -20z m178 4 c16 -11 22 -25
22 -55 0 -54 -27 -79 -85 -79 l-45 0 0 75 0 75 43 0 c23 0 53 -7 65 -16z"/>
</g>
</svg>
